<svg height="512pt" viewBox="-56 0 512 512" width="512pt" xmlns="http://www.w3.org/2000/svg"><path d="m200 266c5.519531 0 10-4.480469 10-10s-4.480469-10-10-10-10 4.480469-10 10 4.480469 10 10 10zm0 0"/><path d="m50 432h102.191406l-5.019531 20.085938c-26.257813 1.472656-47.171875 23.292968-47.171875 49.914062 0 5.523438 4.476562 10 10 10h180c5.523438 0 10-4.476562 10-10 0-26.621094-20.914062-48.441406-47.171875-49.914062l-5.019531-20.085938h102.191406c27.570312 0 50-22.429688 50-50 0-5.523438-4.476562-10-10-10h-30v-96c0-16.542969-13.457031-30-30-30h-10v-96c0-16.542969-13.457031-30-30-30h-62.644531c30.378906-25.660156 52.042969-44.761719 52.042969-72.421875 0-26.679687-19.597657-47.578125-44.617188-47.578125-16.824219 0-27.796875 9.019531-34.609375 18.195312-6.816406-9.175781-17.792969-18.195312-34.621094-18.195312-25.015625 0-44.609375 20.898438-44.609375 47.578125 0 27.660156 21.667969 46.761719 52.046875 72.421875h-62.988281c-16.542969 0-30 13.457031-30 30v96h-10c-16.542969 0-30 13.457031-30 30v96h-30c-5.523438 0-10 4.476562-10 10 0 27.570312 22.429688 50 50 50zm90.941406-384.421875c0-15.722656 10.578125-27.578125 24.609375-27.578125 18.207031 0 24.691407 21.671875 24.992188 22.707031 1.210937 4.3125 5.144531 7.292969 9.625 7.292969 4.496093 0 8.4375-3 9.636719-7.332031.066406-.226563 6.496093-22.667969 24.976562-22.667969 14.035156 0 24.617188 11.855469 24.617188 27.578125 0 19.207031-17.964844 34.367187-47.726563 59.488281-3.730469 3.148438-7.546875 6.367188-11.503906 9.746094-3.953125-3.378906-7.769531-6.597656-11.503907-9.75-29.757812-25.117188-47.722656-40.277344-47.722656-59.484375zm137.34375 444.421875h-156.570312c4.125-11.640625 15.25-20 28.285156-20h100c13.035156 0 24.160156 8.359375 28.285156 20zm-46.09375-40h-64.382812l5-20h54.382812zm-122.191406-312h180c5.515625 0 10 4.484375 10 10v34.226562c-.933594-.722656-1.855469-1.480468-2.761719-2.304687-21.976562-20.039063-51.503906-20.039063-73.476562 0-14.347657 13.085937-32.175781 13.085937-46.523438 0-21.972656-20.039063-51.503906-20.039063-73.472656-.003906-1.230469 1.121093-2.484375 2.144531-3.765625 3.078125v-34.996094c0-5.515625 4.484375-10 10-10zm-40 126h90c5.523438 0 10-4.476562 10-10s-4.476562-10-10-10h-60v-38.21875c6.132812-2.535156 11.910156-6.226562 17.238281-11.082031 14.347657-13.085938 32.175781-13.085938 46.523438 0 10.984375 10.019531 23.859375 15.03125 36.738281 15.03125 12.875 0 25.75-5.011719 36.738281-15.03125 14.347657-13.082031 32.171875-13.085938 46.523438 0 5.027343 4.585937 10.46875 8.140625 16.234375 10.660156v38.640625h-60c-5.519532 0-10 4.476562-10 10s4.480468 10 10 10h90c5.515625 0 10 4.484375 10 10v34.984375c-13.613282 9.90625-29.671875 8.875-42.761719-3.0625-21.972656-20.039063-51.5-20.039063-73.476563 0-14.347656 13.085937-32.175781 13.085937-46.523437 0-21.972656-20.039063-51.5-20.039063-73.476563 0-13.4375 12.257813-29.933593 13.03125-43.761718 2.324219v-34.246094c.003906-5.515625 4.488281-10 10.003906-10zm-10 67.359375c18.964844 8.296875 40.335938 4.753906 57.238281-10.660156 14.347657-13.085938 32.175781-13.085938 46.523438 0 10.984375 10.019531 23.859375 15.03125 36.738281 15.03125 12.875 0 25.75-5.011719 36.738281-15.03125 14.347657-13.085938 32.171875-13.085938 46.519531 0 16.554688 15.101562 37.515626 18.796875 56.238282 11.070312v38.230469h-279.996094zm318.285156 58.640625c-4.125 11.640625-15.25 20-28.285156 20h-300c-13.035156 0-24.160156-8.359375-28.285156-20zm0 0"/></svg>