<?xml version="1.0" encoding="iso-8859-1"?>
<!-- Generator: Adobe Illustrator 18.0.0, SVG Export Plug-In . SVG Version: 6.00 Build 0)  -->
<!DOCTYPE svg PUBLIC "-//W3C//DTD SVG 1.1//EN" "http://www.w3.org/Graphics/SVG/1.1/DTD/svg11.dtd">
<svg version="1.1" id="Capa_1" xmlns="http://www.w3.org/2000/svg" xmlns:xlink="http://www.w3.org/1999/xlink" x="0px" y="0px"
	 viewBox="0 0 481.506 481.506" style="enable-background:new 0 0 481.506 481.506;" xml:space="preserve">
<g>
	<path d="M109.671,300.723c-17.441,0-31.63,14.189-31.63,31.63s14.189,31.63,31.63,31.63s31.63-14.189,31.63-31.63
		S127.112,300.723,109.671,300.723z M109.671,343.983c-6.413,0-11.63-5.217-11.63-11.63s5.217-11.63,11.63-11.63
		c6.413,0,11.63,5.217,11.63,11.63S116.084,343.983,109.671,343.983z"/>
	<path d="M353.524,300.723c-17.441,0-31.63,14.189-31.63,31.63s14.189,31.63,31.63,31.63s31.63-14.189,31.63-31.63
		S370.965,300.723,353.524,300.723z M353.524,343.983c-6.413,0-11.63-5.217-11.63-11.63s5.217-11.63,11.63-11.63
		c6.413,0,11.63,5.217,11.63,11.63S359.937,343.983,353.524,343.983z"/>
	<path d="M472.799,295.99c-3.816-3.805-8.481-6.446-13.562-7.75v-17.381c0-44.036-35.826-79.863-79.862-79.863h-73.619
		l-40.328-98.199c-1.559-3.796-5.293-6.272-9.381-6.2c-4.103,0.054-7.757,2.608-9.216,6.444l-8.835,23.226
		c-9.143,24.058-11.56,49.65-7.192,74.729H123.427L13.969,143.662c-3.092-1.337-6.647-1.027-9.46,0.821
		C1.695,146.332,0,149.474,0,152.841v48.155c0,5.523,4.477,10,10,10h23.227c-5.297,7.573-8.418,16.775-8.418,26.697v52.236
		c-10.313,4.662-17.512,15.04-17.512,27.074c0,7.935,3.089,15.394,8.698,21.003c5.609,5.609,13.068,8.698,21.002,8.698h11.795
		c6.505,27.598,31.322,48.208,60.878,48.208s54.373-20.61,60.878-48.208h122.098c6.505,27.598,31.322,48.208,60.878,48.208
		s54.372-20.61,60.878-48.208h37.404c16.377,0,29.701-13.324,29.701-29.701C481.506,309.083,478.421,301.628,472.799,295.99z
		 M438.87,264.295c-0.424,0.035-0.846,0.076-1.278,0.076c-8.267,0-14.993-6.73-14.993-15.003c0-4.901,2.447-9.395,6.257-12.159
		C434.237,245.097,437.778,254.332,438.87,264.295z M256.534,123.787l27.601,67.209h-32.98
		C246.584,168.505,248.396,145.431,256.534,123.787z M20,168.06l53.039,22.936H20V168.06z M30.138,323.863
		c-1.832-1.832-2.84-4.268-2.84-6.861c0-5.349,4.352-9.701,9.701-9.701h15.367c-2.648,6.034-4.369,12.559-4.985,19.402H36.999
		C34.406,326.703,31.97,325.694,30.138,323.863z M109.671,374.911c-23.466,0-42.558-19.091-42.558-42.558
		c0-23.467,19.091-42.558,42.558-42.558c23.467,0,42.558,19.091,42.558,42.558C152.229,355.819,133.138,374.911,109.671,374.911z
		 M291.234,326.703H171.962c-2.867-31.855-29.702-56.908-62.291-56.908c-16.812,0-32.084,6.678-43.336,17.506H44.81v-49.608
		c0-14.721,11.977-26.697,26.697-26.697h307.868c13.278,0,25.556,4.352,35.495,11.695c-7.609,6.456-12.272,16.056-12.272,26.676
		c0,19.301,15.698,35.003,34.993,35.003c0.549,0,1.098-0.024,1.646-0.05v2.981H396.86c-11.252-10.828-26.524-17.506-43.336-17.506
		C320.936,269.795,294.101,294.848,291.234,326.703z M353.524,374.911c-23.466,0-42.558-19.091-42.558-42.558
		c0-23.467,19.091-42.558,42.558-42.558s42.558,19.091,42.558,42.558C396.082,355.819,376.991,374.911,353.524,374.911z
		 M451.806,326.703h-35.991c-0.616-6.843-2.337-13.368-4.985-19.402h40.976c2.587,0,5.027,1.012,6.851,2.83
		c1.838,1.843,2.85,4.283,2.85,6.871C461.506,322.351,457.155,326.703,451.806,326.703z"/>
	<path d="M246.972,224.468c-5.879,0-11.525,1.512-16.494,4.353c-12.71-7.225-29.198-5.425-40.026,5.403
		c-12.987,12.988-12.987,34.12,0,47.108l32.966,32.966c1.953,1.953,4.512,2.929,7.071,2.929s5.119-0.976,7.071-2.929l32.966-32.966
		c12.987-12.988,12.987-34.12,0-47.108C264.234,227.933,255.87,224.468,246.972,224.468z M256.384,267.19l-25.895,25.895
		l-25.895-25.895c-5.189-5.19-5.189-13.634,0-18.823c2.595-2.595,6.003-3.892,9.412-3.892s6.817,1.297,9.412,3.892
		c1.875,1.875,4.419,2.929,7.071,2.929c2.652,0,5.196-1.054,7.071-2.929c2.514-2.514,5.856-3.898,9.412-3.898
		c3.555,0,6.898,1.385,9.412,3.898C261.573,253.556,261.573,262,256.384,267.19z"/>
</g>
<g>
</g>
<g>
</g>
<g>
</g>
<g>
</g>
<g>
</g>
<g>
</g>
<g>
</g>
<g>
</g>
<g>
</g>
<g>
</g>
<g>
</g>
<g>
</g>
<g>
</g>
<g>
</g>
<g>
</g>
</svg>
