<?xml version="1.0" encoding="iso-8859-1"?>
<!-- Generator: Adobe Illustrator 19.0.0, SVG Export Plug-In . SVG Version: 6.00 Build 0)  -->
<svg version="1.1" id="Capa_1" xmlns="http://www.w3.org/2000/svg" xmlns:xlink="http://www.w3.org/1999/xlink" x="0px" y="0px"
	 viewBox="0 0 413.184 413.184" style="enable-background:new 0 0 413.184 413.184;" xml:space="preserve">
<g>
	<g>
		<path d="M361.642,389.632c-0.512-2.56-3.584-4.608-6.144-3.584l-28.672,7.168l-25.088-108.544
			c22.528-11.776,28.672-64.512,14.336-127.488c-4.608-18.944-16.896-65.536-24.576-82.944c-1.024-2.56-3.584-3.584-6.144-3.072
			l-72.704,17.92c-2.56,0.512-4.096,2.56-4.096,5.12c1.024,18.944,10.24,66.56,14.336,85.504c11.264,49.152,32.256,89.6,53.76,102.4
			c5.12,3.072,9.728,4.608,14.336,4.608l26.112,109.056l-30.208,7.168c-2.56,0.512-4.608,3.584-3.584,6.144
			c0.512,2.56,2.56,4.096,5.12,4.096c0.512,0,1.024,0,1.024,0l68.608-17.408C360.618,395.264,362.666,392.704,361.642,389.632z
			 M219.818,97.792l64-15.872c6.144,16.384,15.36,49.152,19.968,68.608c-3.072,3.072-6.144,5.12-11.264,6.144
			c-8.192,2.048-13.824-0.512-19.968-3.072c-6.656-3.072-14.848-6.656-26.624-3.584c-7.68,2.048-12.8,5.632-16.384,9.216
			C225.962,139.776,221.354,113.152,219.818,97.792z M294.57,276.48c-3.584,1.024-7.68,0-11.776-2.56
			c-18.944-11.776-38.4-50.176-49.152-96.256c-0.512-1.536-0.512-3.072-1.024-5.12c4.096-5.12,7.68-9.728,16.384-11.776
			c8.192-2.048,13.824,0.512,19.968,3.072c6.656,3.072,14.848,6.656,26.624,3.584c5.12-1.024,8.704-3.072,11.776-5.12
			C320.682,224.256,311.466,271.872,294.57,276.48z"/>
	</g>
</g>
<g>
	<g>
		<path d="M200.362,53.76l-72.704-17.92c-2.56-0.512-5.12,0.512-6.144,3.072c-7.68,17.408-19.968,64-24.576,82.944
			c-14.336,62.976-8.192,115.712,14.336,127.488L86.186,357.888l-28.672-7.168c-2.56-0.512-5.632,1.024-6.144,3.584
			c-0.512,2.56,1.024,5.632,3.584,6.144l68.608,16.896c0.512,0,1.024,0,1.024,0c2.048,0,4.608-1.536,5.12-4.096
			c0.512-2.56-1.024-5.632-3.584-6.144l-30.208-7.68l25.088-108.544c4.608,0,9.728-1.536,14.336-4.608
			c21.504-13.312,42.496-53.248,53.76-102.4c4.608-18.944,13.312-66.048,14.336-85.504C204.458,56.832,202.41,54.272,200.362,53.76z
			 M179.882,142.336c-10.752,46.08-30.208,84.48-49.152,96.256c-4.608,2.56-8.192,3.584-11.776,2.56
			c-16.896-4.096-25.6-52.224-11.776-114.176c3.072,2.048,6.656,4.096,11.776,5.12c11.776,3.072,19.456-0.512,26.624-3.584
			c6.144-2.56,11.264-5.12,19.968-3.072c8.192,2.048,12.288,6.656,16.384,11.776C180.394,138.752,179.882,140.8,179.882,142.336z
			 M183.466,124.416c-3.584-4.096-8.704-7.168-16.384-9.216c-11.776-3.072-19.456,0.512-26.624,3.584
			c-6.144,2.56-11.264,5.12-19.968,3.072c-5.632-1.536-8.704-3.584-11.264-6.144c5.12-19.456,13.824-52.224,19.968-68.608l64,15.872
			C192.17,77.824,187.562,104.448,183.466,124.416z"/>
	</g>
</g>
<g>
	<g>
		<path d="M214.698,0c-3.072,0-5.12,2.048-5.12,5.12l-0.512,26.624c0,3.072,2.048,5.12,5.12,5.12c3.072,0,5.12-2.048,5.12-5.12
			l0.512-26.624C219.818,2.048,217.77,0,214.698,0z"/>
	</g>
</g>
<g>
	<g>
		<path d="M258.73,18.432c-2.56-1.536-5.632-0.512-7.168,1.536l-13.824,23.04c-2.048,3.072-1.024,6.144,1.536,7.68
			c1.024,0.512,1.536,0.512,2.56,0.512c1.536,0,3.584-1.024,4.608-2.56l13.824-23.04C261.802,23.04,260.778,19.968,258.73,18.432z"
			/>
	</g>
</g>
<g>
</g>
<g>
</g>
<g>
</g>
<g>
</g>
<g>
</g>
<g>
</g>
<g>
</g>
<g>
</g>
<g>
</g>
<g>
</g>
<g>
</g>
<g>
</g>
<g>
</g>
<g>
</g>
<g>
</g>
</svg>
