<?xml version="1.0" encoding="iso-8859-1"?>
<!-- Generator: Adobe Illustrator 18.0.0, SVG Export Plug-In . SVG Version: 6.00 Build 0)  -->
<!DOCTYPE svg PUBLIC "-//W3C//DTD SVG 1.1//EN" "http://www.w3.org/Graphics/SVG/1.1/DTD/svg11.dtd">
<svg version="1.1" id="Capa_1" xmlns="http://www.w3.org/2000/svg" xmlns:xlink="http://www.w3.org/1999/xlink" x="0px" y="0px"
	 viewBox="0 0 303 303" style="enable-background:new 0 0 303 303;" xml:space="preserve">
<g>
	<path d="M275.762,200.406l-67.459-69.189C186.575,108.933,180.796,75,193.922,46.78l15.146-32.563
		c1.44-3.097,1.2-6.715-0.636-9.594C206.595,1.743,203.415,0,200,0h-97c-3.415,0-6.595,1.743-8.432,4.623
		c-1.836,2.879-2.076,6.498-0.636,9.594l15.146,32.563c13.126,28.22,7.347,62.152-14.381,84.436l-67.459,69.189
		C19.991,207.838,16,217.648,16,228.03c0,14.283,7.735,27.501,20.187,34.498l34.295,19.269C95.168,295.668,123.184,303,151.5,303
		s56.332-7.332,81.019-21.203l34.295-19.27C279.265,255.531,287,242.313,287,228.03C287,217.648,283.009,207.838,275.762,200.406z
		 M109.018,145.178c13.574-13.922,22.476-31.413,25.74-50.582c3.264-19.168,0.655-38.62-7.545-56.25L118.68,20h65.641l-8.533,18.346
		c-8.2,17.631-10.809,37.082-7.545,56.25c3.265,19.169,12.166,36.66,25.74,50.582L245.97,198.5H57.029L109.018,145.178z
		 M257.017,245.091l-34.295,19.27C201.021,276.555,176.393,283,151.5,283s-49.521-6.445-71.222-18.639l-34.295-19.27
		C39.825,241.631,36,235.094,36,228.03c0-3.388,0.876-6.644,2.49-9.53H264.51c1.615,2.885,2.49,6.142,2.49,9.53
		C267,235.094,263.175,241.631,257.017,245.091z"/>
</g>
<g>
</g>
<g>
</g>
<g>
</g>
<g>
</g>
<g>
</g>
<g>
</g>
<g>
</g>
<g>
</g>
<g>
</g>
<g>
</g>
<g>
</g>
<g>
</g>
<g>
</g>
<g>
</g>
<g>
</g>
</svg>
