<svg viewBox="-64 0 512 512" xmlns="http://www.w3.org/2000/svg"><path d="m383.324219 482.902344-73.191407-167.109375c-2.214843-5.0625-8.113281-7.363281-13.171874-5.148438-5.058594 2.214844-7.363282 8.113281-5.148438 13.171875l61.292969 139.9375c-4.957031-1.269531-10.105469-1.921875-15.355469-1.921875-16.425781 0-31.871094 6.398438-43.488281 18.015625-7.835938 7.835938-18.261719 12.152344-29.34375 12.152344-11.085938 0-21.507813-4.316406-29.347657-12.152344-23.976562-23.980468-62.996093-23.980468-86.972656 0-7.839844 7.835938-18.261718 12.152344-29.347656 12.152344-11.082031 0-21.503906-4.316406-29.34375-12.152344-11.617188-11.617187-27.058594-18.015625-43.484375-18.015625-5.25 0-10.398437.652344-15.355469 1.921875l114.175782-260.683594v59.242188c0 5.523438 4.476562 10 10 10 5.523437 0 10-4.476562 10-10v-74.3125h67.085937l25.269531 57.695312c1.644532 3.75 5.316406 5.988282 9.167969 5.988282 1.339844 0 2.699219-.269532 4.003906-.839844 5.058594-2.214844 7.367188-8.113281 5.148438-13.171875l-24.558594-56.078125c22.984375-16.984375 38.460937-42.363281 42.921875-70.839844l13.730469-87.683594c.902343-5.777343-.757813-11.636718-4.558594-16.078124-3.804687-4.445313-9.335937-6.992188-15.183594-6.992188-8.007812 0-15.214843 4.757812-18.367187 12.121094-10.265625 23.996094-27.378906 44.011718-49.488282 57.882812l-28.332031 17.769532-28.332031-17.769532c-22.109375-13.871094-39.222656-33.886718-49.488281-57.882812-3.148438-7.363282-10.359375-12.121094-18.367188-12.121094-5.847656 0-11.378906 2.546875-15.179687 6.988281-3.800782 4.445313-5.460938 10.304688-4.558594 16.078125l13.730469 87.6875c4.457031 28.476563 19.9375 53.855469 42.921875 70.839844l-131.96875 301.308594c-1.929688 4.40625-.449219 9.5625 3.523437 12.273437 3.972657 2.710938 9.308594 2.210938 12.707031-1.1875 16.183594-16.183593 42.511719-16.183593 58.691407 0 11.617187 11.613281 27.0625 18.011719 43.488281 18.011719s31.871094-6.394531 43.488281-18.011719c7.835938-7.839843 18.257813-12.15625 29.34375-12.15625 11.085938 0 21.507813 4.316407 29.347657 12.15625 11.613281 11.613281 27.058593 18.011719 43.484374 18.011719 16.429688 0 31.871094-6.398438 43.488282-18.011719 7.835937-7.839843 18.257812-12.15625 29.34375-12.15625 11.085937 0 21.507812 4.316407 29.347656 12.15625 3.398438 3.398438 8.738281 3.898438 12.707031 1.1875 3.972657-2.710937 5.453125-7.867187 3.523438-12.273437zm-273.675781-375.242188-13.777344-87.675781c11.875 27.761719 31.675781 50.917969 57.25 66.960937l32.378906 20.3125c1.828125 1.554688 4.144531 2.382813 6.496094 2.382813h.085937c2.359375.007813 4.734375-.808594 6.582031-2.382813l32.378907-20.3125c25.578125-16.042968 45.375-39.199218 57.207031-66.972656l-13.730469 87.6875c-3.867187 24.6875-17.875 46.53125-38.59375 60.339844h-87.683593c-20.722657-13.8125-34.730469-35.652344-38.59375-60.339844zm0 0"/><path d="m155.242188 288.160156c-2.640626 0-5.210938 1.0625-7.070313 2.929688-1.867187 1.859375-2.929687 4.429687-2.929687 7.070312 0 2.628906 1.0625 5.210938 2.929687 7.070313 1.859375 1.859375 4.429687 2.929687 7.070313 2.929687 2.628906 0 5.210937-1.070312 7.070312-2.929687s2.929688-4.441407 2.929688-7.070313c0-2.640625-1.070313-5.210937-2.929688-7.070312-1.859375-1.871094-4.441406-2.929688-7.070312-2.929688zm0 0"/></svg>