<?xml version="1.0" encoding="iso-8859-1"?>
<!-- Generator: Adobe Illustrator 19.0.0, SVG Export Plug-In . SVG Version: 6.00 Build 0)  -->
<svg xmlns="http://www.w3.org/2000/svg" xmlns:xlink="http://www.w3.org/1999/xlink" version="1.1" id="Layer_1" x="0px" y="0px" viewBox="0 0 512 512" style="enable-background:new 0 0 512 512;" xml:space="preserve" width="512" height="512">
<g>
	<path d="M148,172c-5.51,0-10,4.49-10,10s4.49,10,10,10s10-4.49,10-10S153.51,172,148,172z"/>
	<path d="M228,92h-80c-2.63,0-5.21,1.069-7.07,2.93S138,99.37,138,102v40c0,5.51,4.49,10,10,10s10-4.49,10-10v-30h70   c5.51,0,10-4.49,10-10S233.51,92,228,92z"/>
	<path d="M464.007,507.914c1.249-1.67,1.995-3.725,1.993-5.918c0,0,0-491.937,0-491.99c0-2.622-1.078-5.216-2.931-7.07   c-1.801-1.802-4.332-2.926-6.891-2.926C456.118,0.008,456.06,0,456,0H56c-0.06,0-0.118,0.008-0.178,0.009   c-2.559,0.047-5.067,1.105-6.88,2.914C47.084,4.776,45.998,7.38,46,10.005c0,0,0,491.937,0,491.99c0,2.589,1.05,5.152,2.862,7.001   C50.718,510.889,53.347,512,56,512c0,0,399.876,0,400,0C459.234,512,462.166,510.375,464.007,507.914z M118,440V72h276v221.857   L247.857,440H118z M394,322.143v35.715L311.857,440h-35.715L394,322.143z M394,386.143V440h-53.857L394,386.143z M399.857,52   H112.143l-32-32h351.715L399.857,52z M98,66.143v379.715l-32,32V34.143L98,66.143z M112.143,460h287.715l32,32H80.143L112.143,460z    M414,445.857V66.143l32-32v443.715L414,445.857z"/>
</g>















</svg>
