<svg height="512pt" viewBox="-46 0 512 512.00001" width="512pt" xmlns="http://www.w3.org/2000/svg"><path d="m399.984375 502v-281.988281h9.996094c5.523437 0 10-4.476563 10-10v-79.996094c0-5.519531-4.476563-10-10-10h-25.757813c9.929688-14.707031 15.761719-34.339844 15.761719-55.214844-.273437-56.554687-67.605469-85.769531-109.105469-47.402343-.03125.03125-.0625.0625-.097656.09375l-44.78125 42.527343h-72.015625s-44.847656-42.589843-44.882813-42.621093c-41.46875-38.34375-108.832031-9.207032-109.101562 47.449218 0 20.84375 5.828125 40.46875 15.757812 55.167969h-25.757812c-5.523438 0-10 4.480469-10 10v79.996094c0 5.523437 4.476562 10 10 10h10v114.992187c0 5.523438 4.476562 10 10 10 5.519531 0 10-4.476562 10-10v-114.992187h119.992188v271.988281h-119.992188v-76.996094c0-5.523437-4.480469-10-10-10-5.523438 0-10 4.476563-10 10v86.996094c0 5.523438 4.476562 10 10 10h359.984375c5.523437 0 10-4.476562 10-10zm0-301.988281h-119.996094v-59.996094h119.996094zm-239.992187 0v-59.996094h99.996093v59.996094zm144.511718-167.972657c28.789063-26.550781 75.292969-6.167968 75.480469 32.808594 0 23.367188-9.070313 45.082032-22.792969 55.167969h-97.203125v-45.703125zm-64.515625 47.980469v39.996094h-59.996093v-39.996094zm-199.988281-15.121093c.1875-39.117188 46.734375-59.363282 75.480469-32.859376l44.511719 42.273438v45.703125h-97.199219c-13.726563-10.085937-22.792969-31.796875-22.792969-55.117187zm-20 75.117187h119.992188v59.996094h-119.992188zm159.992188 79.996094h59.996093v271.988281h-59.996093zm79.996093 271.988281v-271.988281h119.996094v271.988281zm0 0"/><path d="m30 385.003906c5.519531 0 10-4.476562 10-9.996094 0-5.523437-4.480469-10-10-10s-10 4.476563-10 10c0 5.519532 4.480469 9.996094 10 9.996094zm0 0"/></svg>