<?xml version="1.0" encoding="iso-8859-1"?>
<!-- Generator: Adobe Illustrator 18.0.0, SVG Export Plug-In . SVG Version: 6.00 Build 0)  -->
<!DOCTYPE svg PUBLIC "-//W3C//DTD SVG 1.1//EN" "http://www.w3.org/Graphics/SVG/1.1/DTD/svg11.dtd">
<svg version="1.1" id="Capa_1" xmlns="http://www.w3.org/2000/svg" xmlns:xlink="http://www.w3.org/1999/xlink" x="0px" y="0px"
	 viewBox="0 0 456.114 456.114" style="enable-background:new 0 0 456.114 456.114;" xml:space="preserve">
<g id="XMLID_484_">
	<path id="XMLID_488_" d="M102.948,404.818c-11.966-2.584-20.645-11.701-23.395-22.628l-24.474,38.181
		c-6.918,10.792-3.777,25.149,7.015,32.067c10.8,6.923,25.154,3.77,32.067-7.015l27.113-42.298
		C115.524,405.54,109.201,406.164,102.948,404.818z"/>
	<polygon id="XMLID_1100_" points="141.744,371.19 194.242,289.291 154.47,312.288 	"/>
	<path id="XMLID_1101_" d="M263.025,261.003l3.084-13.269c-12.222,7.068-44.91,25.969-48.877,28.262l39.54,59.337l-22.365,92.086
		c-3.025,12.457,4.62,25.008,17.077,28.033c12.439,3.024,25.005-4.607,28.033-17.077l24.766-101.971
		c1.53-6.301,0.355-12.953-3.24-18.349L263.025,261.003z"/>
	<circle id="XMLID_1102_" cx="261.993" cy="40.097" r="40.087"/>
	<path id="XMLID_1103_" d="M419.513,134.518c-5.271-9.291-17.076-12.552-26.368-7.279l-7.33,4.159l21.36,32.358l5.06-2.87
		C421.526,155.614,424.785,143.809,419.513,134.518z"/>
	<path id="XMLID_1130_" d="M351.364,116.505c3.995-7.111,3.986-16.144-0.817-23.421c-6.843-10.367-20.796-13.226-31.165-6.381
		c-10.363,6.84-13.228,20.793-6.381,31.165c4.721,7.153,12.954,10.85,21.215,9.955l15.793,23.925l-107.061,61.907
		c2.225,7.751,1.986,16.384-1.176,24.416l119.577-69.145l17.635,26.715c3.123,4.732,9.497,6.042,14.234,2.915
		c4.735-3.126,6.04-9.498,2.914-14.234L351.364,116.505z"/>
	<path id="XMLID_1131_" d="M179.266,250.479l-52.707,30.478l-80.035-17.292c-5.55-1.201-11.013,2.327-12.211,7.873
		c-1.198,5.545,2.326,11.013,7.872,12.211l72.216,15.603c0.297,0.567,0.047,0.168,0.607,0.995l-15.594,72.176
		c-1.2,5.554,2.335,11.018,7.872,12.212c5.572,1.2,11.018-2.348,12.211-7.872l16.811-77.807l64.702-37.413
		C192.518,260.4,185.043,256.462,179.266,250.479z"/>
	<path id="XMLID_1132_" d="M220.947,211.283c-5.324-5.978-42.692-47.937-47.367-53.186c4.124-17.12,3.698-15.35,8.513-35.339
		c0.816-3.433,4.166-6.271,9.072-5.132l-5.953,25.612l47.068,52.851l52.948-30.617l5.73-24.654l6.38,17.651l20.957-12.118
		c-9.083-2.982-17.02-8.948-22.442-17.163c-5.775-8.749-7.925-18.853-6.825-28.534l-38.984-9.061
		c-0.003-0.001-0.007-0.001-0.01-0.002l-50.68-11.778c-24.46-5.687-49.088,9.565-54.883,33.942
		c-0.016,0.068-10.827,44.944-10.87,45.12c-1.505,6.249,0.242,12.773,4.36,17.394l54.096,60.743
		c0.005,0.006,0.012,0.011,0.017,0.017c7.1,7.951,19.311,8.672,27.292,1.563C227.344,231.487,228.051,219.26,220.947,211.283z"/>
</g>
<g>
</g>
<g>
</g>
<g>
</g>
<g>
</g>
<g>
</g>
<g>
</g>
<g>
</g>
<g>
</g>
<g>
</g>
<g>
</g>
<g>
</g>
<g>
</g>
<g>
</g>
<g>
</g>
<g>
</g>
</svg>
