<svg height="512pt" viewBox="0 0 512 512" width="512pt" xmlns="http://www.w3.org/2000/svg"><path d="m241 151h30v30h-30zm0 0"/><path d="m241 211h30v30h-30zm0 0"/><path d="m389.960938 64.007812c-5.671876-33.390624-32.984376-56.914062-34.277344-58.007812l-7.382813-6-65.683593 31h-53.234376l-65.683593-31-7.382813 6c-1.292968 1.09375-28.605468 24.617188-34.277344 58.007812l-122.039062 30.257813v417.734375h512v-417.734375zm27.648437 188.753907c-29.421875 26.339843-65.742187 42.597656-104.714844 47.011719 30-27.1875 48.105469-66.269532 48.105469-108.640626v-48.921874c5.484375-5.832032 14.355469-16.453126 21.03125-30.117188l34.667969 51.996094-28.953125 28.949218zm-322.308594-88.671875 34.667969-51.996094c6.679688 13.664062 15.546875 24.285156 21.03125 30.117188v48.921874c0 42.371094 18.105469 81.457032 48.105469 108.640626-38.972657-4.414063-75.292969-20.671876-104.714844-47.011719l29.863281-59.722657zm134.238281-43.089844h52.921876l48.539062 24.269531v45.863281c0 48.589844-29.933594 91.75-75 108.941407-45.066406-17.191407-75-60.351563-75-108.941407v-45.863281zm131.460938-45c0 17.09375-10.835938 32.84375-18.242188 41.609375l-41.757812-20.878906v-41.25l41.84375-19.875c7.3125 8.285156 18.15625 23.429687 18.15625 40.394531zm-120-15h30v30h-30zm-71.855469-25.398438 41.855469 19.878907v41.25l-41.742188 20.871093c-7.40625-8.789062-18.257812-24.574218-18.257812-41.601562 0-17.019531 10.832031-32.132812 18.144531-40.398438zm-139.144531 82.132813 72.058594-17.867187-45.359375 68.042968 31.046875 31.050782-30 60 7.648437 7.644531c41.214844 41.21875 97.039063 64.394531 155.457031 64.394531h20.148438v151h-211zm452 364.265625h-211v-151h20.148438c58.289062 0 114.148437-23.082031 155.457031-64.394531l7.644531-7.644531-30-60 31.050781-31.050782-45.359375-68.042968 72.058594 17.867187zm0 0"/></svg>