<svg height="547pt" viewBox="-17 -31 547.99852 547" width="547pt" xmlns="http://www.w3.org/2000/svg"><path d="m73.753906 428.117188c-3.328125-3.328126-8.714844-3.328126-12.042968 0l-11.492188 11.492187-11.488281-11.492187c-3.328125-3.328126-8.714844-3.328126-12.042969 0-3.324219 3.324218-3.324219 8.714843 0 12.042968l11.492188 11.488282-11.492188 11.492187c-3.324219 3.324219-3.324219 8.714844 0 12.042969 1.664062 1.660156 3.84375 2.492187 6.019531 2.492187 2.179688 0 4.359375-.832031 6.023438-2.492187l11.488281-11.496094 11.492188 11.496094c1.664062 1.660156 3.84375 2.492187 6.019531 2.492187 2.179687 0 4.359375-.832031 6.023437-2.492187 3.324219-3.328125 3.324219-8.71875 0-12.042969l-11.492187-11.492187 11.492187-11.488282c3.324219-3.328125 3.324219-8.71875 0-12.042968zm0 0"/><path d="m35.199219 66.449219c1.660156 1.664062 3.84375 2.496093 6.023437 2.496093 2.175782 0 4.355469-.832031 6.015625-2.496093l11.496094-11.488281 11.488281 11.488281c1.660156 1.664062 3.84375 2.496093 6.023438 2.496093 2.175781 0 4.355468-.832031 6.015625-2.496093 3.328125-3.324219 3.328125-8.710938 0-12.039063l-11.488281-11.488281 11.488281-11.496094c3.328125-3.320312 3.328125-8.710937 0-12.039062-3.324219-3.324219-8.710938-3.324219-12.039063 0l-11.488281 11.488281-11.496094-11.488281c-3.324219-3.324219-8.710937-3.324219-12.039062 0-3.324219 3.328125-3.324219 8.71875 0 12.039062l11.492187 11.496094-11.492187 11.488281c-3.324219 3.328125-3.324219 8.714844 0 12.039063zm0 0"/><path d="m481.113281 59.117188c16.429688 0 29.804688-13.371094 29.804688-29.804688 0-16.429688-13.375-29.800781-29.804688-29.800781-16.4375 0-29.804687 13.371093-29.804687 29.800781 0 16.433594 13.367187 29.804688 29.804687 29.804688zm0-42.574219c7.042969 0 12.769531 5.726562 12.769531 12.769531 0 7.046875-5.726562 12.773438-12.769531 12.773438-7.046875 0-12.777343-5.726563-12.777343-12.773438 0-7.042969 5.734374-12.769531 12.777343-12.769531zm0 0"/><path d="m59.605469 335.863281c0-16.433593-13.371094-29.804687-29.800781-29.804687-16.433594 0-29.804688 13.371094-29.804688 29.804687 0 16.429688 13.371094 29.804688 29.804688 29.804688 16.429687 0 29.800781-13.375 29.800781-29.804688zm-42.578125 0c0-7.046875 5.730468-12.777343 12.777344-12.777343 7.039062 0 12.769531 5.730468 12.769531 12.777343s-5.730469 12.769531-12.769531 12.769531c-7.046876 0-12.777344-5.722656-12.777344-12.769531zm0 0"/><path d="m464.082031 425.273438c-16.433593 0-29.804687 13.371093-29.804687 29.804687 0 16.429687 13.371094 29.800781 29.804687 29.800781 16.429688 0 29.800781-13.371094 29.800781-29.800781 0-16.433594-13.371093-29.804687-29.800781-29.804687zm0 42.574218c-7.042969 0-12.773437-5.730468-12.773437-12.769531 0-7.046875 5.730468-12.777344 12.773437-12.777344s12.773438 5.730469 12.773438 12.777344c0 7.039063-5.730469 12.769531-12.773438 12.769531zm0 0"/><path d="m346.363281 266.703125 40.597657-40.515625c2.296874-2.292969 3.09375-5.683594 2.050781-8.753906-1.035157-3.070313-3.722657-5.289063-6.941407-5.714844l-56.84375-7.578125-26-51.132813c-1.464843-2.894531-4.542968-4.914062-7.6875-4.65625-3.238281.042969-6.179687 1.910157-7.582031 4.839844l-24.777343 51.71875-56.652344 8.917969c-3.199219.507813-5.835938 2.785156-6.808594 5.878906-.964844 3.09375-.085938 6.472657 2.257812 8.707031l41.539063 39.542969-9.019531 56.644531c-.515625 3.203126.839844 6.414063 3.484375 8.285157 1.460937 1.046875 3.191406 1.570312 4.921875 1.570312 1.386718 0 2.785156-.34375 4.046875-1.023437l50.453125-27.28125 51.070312 26.085937c2.886719 1.472657 6.355469 1.179688 8.964844-.753906 2.597656-1.941406 3.875-5.1875 3.285156-8.367187zm-17.554687-1.324219 8.050781 43.839844-39.695313-20.273438c-2.507812-1.269531-5.449218-1.226562-7.929687.09375l-39.207031 21.203126 7.011718-44.019532c.4375-2.769531-.507812-5.570312-2.535156-7.511718l-32.285156-30.734376 44.03125-6.929687c2.773438-.4375 5.152344-2.210937 6.363281-4.738281l19.253907-40.207032 20.203124 39.746094c1.273438 2.496094 3.691407 4.214844 6.472657 4.585938l44.179687 5.886718-31.550781 31.492188c-1.988281 1.976562-2.871094 4.8125-2.363281 7.566406zm0 0"/><path d="m267.800781 133.226562c.742188 4.117188 4.320313 6.992188 8.367188 6.992188.503906 0 1.011719-.042969 1.527343-.140625 4.628907-.84375 7.699219-5.273437 6.851563-9.894531l-17.804687-97.890625c-.832032-4.632813-5.277344-7.738281-9.890626-6.855469-4.632812.84375-7.703124 5.273438-6.855468 9.898438zm0 0"/><path d="m301.34375 140.078125c.515625.101563 1.023438.140625 1.527344.140625 4.046875 0 7.628906-2.878906 8.371094-6.992188l17.800781-97.890624c.847656-4.625-2.21875-9.058594-6.851563-9.898438-4.609375-.871094-9.0625 2.222656-9.894531 6.855469l-17.804687 97.890625c-.847657 4.621094 2.222656 9.054687 6.851562 9.894531zm0 0"/><path d="m311.238281 364.542969c-.832031-4.628907-5.261719-7.742188-9.894531-6.851563-4.628906.84375-7.699219 5.273438-6.851562 9.898438l17.804687 97.886718c.738281 4.117188 4.320313 6.996094 8.367187 6.996094.503907 0 1.011719-.042968 1.527344-.140625 4.632813-.84375 7.699219-5.273437 6.851563-9.898437zm0 0"/><path d="m277.691406 357.691406c-4.628906-.882812-9.0625 2.222656-9.890625 6.851563l-17.804687 97.890625c-.847656 4.625 2.21875 9.058594 6.851562 9.898437.515625.097657 1.023438.140625 1.53125.140625 4.039063 0 7.625-2.878906 8.363282-6.996094l17.804687-97.886718c.847656-4.625-2.222656-9.058594-6.855469-9.898438zm0 0"/><path d="m505.554688 276.511719-97.46875-19.992188c-4.675782-.921875-9.113282 2.03125-10.054688 6.628907-.949219 4.609374 2.019531 9.105468 6.628906 10.054687l97.46875 19.992187c.578125.117188 1.152344.175782 1.71875.175782 3.957032 0 7.507813-2.777344 8.332032-6.800782.949218-4.609374-2.023438-9.109374-6.625-10.058593zm0 0"/><path d="m503.894531 214.164062-62.292969 9.886719c-4.648437.734375-7.816406 5.101563-7.074218 9.742188.664062 4.195312 4.28125 7.179687 8.398437 7.179687.441407 0 .886719-.035156 1.347657-.109375l62.292968-9.882812c4.648438-.738281 7.816406-5.101563 7.074219-9.75-.734375-4.640625-5.027344-7.851563-9.746094-7.066407zm0 0"/><path d="m172.675781 241.429688c3.957031 0 7.507813-2.777344 8.332031-6.800782.945313-4.605468-2.023437-9.101562-6.628906-10.054687l-97.46875-19.988281c-4.660156-.941407-9.109375 2.027343-10.054687 6.625-.945313 4.605468 2.023437 9.105468 6.632812 10.050781l97.460938 19.992187c.585937.117188 1.160156.175782 1.726562.175782zm0 0"/><path d="m133.714844 257.070312-61.25 9.722657c-4.640625.730469-7.808594 5.09375-7.066406 9.742187.664062 4.191406 4.28125 7.179688 8.394531 7.179688.445312 0 .890625-.035156 1.351562-.109375l61.25-9.71875c4.644531-.730469 7.8125-5.101563 7.070313-9.742188-.734375-4.640625-5-7.863281-9.75-7.074219zm0 0"/><path d="m376.414062 329.910156 81.40625 57.203125c1.488282 1.046875 3.203126 1.546875 4.890626 1.546875 2.679687 0 5.324218-1.265625 6.976562-3.617187 2.703125-3.851563 1.773438-9.167969-2.070312-11.867188l-81.410157-57.203125c-3.855469-2.703125-9.175781-1.761718-11.871093 2.070313-2.699219 3.851562-1.765626 9.160156 2.078124 11.867187zm0 0"/><path d="m389.855469 366.980469c-2.644531-3.886719-7.941407-4.875-11.835938-2.238281-3.882812 2.652343-4.886719 7.949218-2.234375 11.835937l35.539063 52.105469c1.648437 2.421875 4.328125 3.71875 7.046875 3.71875 1.652344 0 3.316406-.484375 4.789062-1.480469 3.882813-2.652344 4.890625-7.949219 2.234375-11.835937zm0 0"/><path d="m111.421875 124.59375 81.410156 57.207031c1.488281 1.046875 3.203125 1.542969 4.886719 1.542969 2.679688 0 5.328125-1.261719 6.980469-3.613281 2.703125-3.851563 1.773437-9.164063-2.074219-11.863281l-81.40625-57.210938c-3.851562-2.707031-9.171875-1.761719-11.867188 2.074219-2.703124 3.847656-1.773437 9.164062 2.070313 11.863281zm0 0"/><path d="m188.59375 129.917969c1.640625 2.417969 4.320312 3.71875 7.039062 3.71875 1.660157 0 3.328126-.488281 4.792969-1.480469 3.882813-2.65625 4.890625-7.953125 2.238281-11.835938l-34.953124-51.230468c-2.640626-3.890625-7.957032-4.867188-11.832032-2.242188-3.882812 2.65625-4.890625 7.953125-2.238281 11.835938zm0 0"/><path d="m192.832031 315.96875-81.410156 57.207031c-3.84375 2.699219-4.773437 8.015625-2.070313 11.867188 1.652344 2.351562 4.296876 3.613281 6.972657 3.613281 1.691406 0 3.40625-.496094 4.894531-1.542969l81.40625-57.207031c3.847656-2.703125 4.777344-8.015625 2.074219-11.867188-2.703125-3.828124-8.015625-4.769531-11.867188-2.070312zm0 0"/><path d="m201.015625 364.742188c-3.890625-2.644532-9.179687-1.652344-11.832031 2.238281l-35.542969 52.105469c-2.652344 3.882812-1.644531 9.179687 2.238281 11.835937 1.472656.996094 3.132813 1.480469 4.789063 1.480469 2.71875 0 5.394531-1.296875 7.042969-3.71875l35.542968-52.105469c2.652344-3.882813 1.644532-9.183594-2.238281-11.835937zm0 0"/><path d="m381.316406 183.34375c1.6875 0 3.398438-.496094 4.890625-1.546875l81.410157-57.203125c3.84375-2.703125 4.769531-8.015625 2.070312-11.863281-2.707031-3.835938-8.015625-4.785157-11.867188-2.074219l-81.40625 57.203125c-3.84375 2.707031-4.777343 8.015625-2.078124 11.867187 1.65625 2.355469 4.304687 3.617188 6.980468 3.617188zm0 0"/><path d="m378.617188 132.15625c1.46875.996094 3.132812 1.480469 4.789062 1.480469 2.71875 0 5.390625-1.300781 7.039062-3.71875l34.957032-51.234375c2.648437-3.882813 1.640625-9.179688-2.242188-11.835938-3.890625-2.632812-9.183594-1.660156-11.832031 2.242188l-34.949219 51.230468c-2.65625 3.882813-1.648437 9.179688 2.238282 11.835938zm0 0"/></svg>