<svg height="512pt" viewBox="0 -21 512.00034 512" width="512pt" xmlns="http://www.w3.org/2000/svg"><path d="m512 201.242188c0-50.4375-41.035156-91.472657-91.472656-91.472657-18.367188 0-35.988282 5.515625-51.199219 15.84375-30.515625-30.316406-68.238281-51.519531-108.964844-58.789062 5.679688-7.0625 9.230469-15.910157 9.230469-25.660157 0-22.695312-18.46875-41.164062-41.164062-41.164062-22.695313 0-41.164063 18.46875-41.164063 41.164062 0 9.878907 3.640625 18.824219 9.460937 25.933594-40.523437 7.527344-78.84375 28.949219-110.714843 62.347656l-25.929688-23.136718c-11.910156-10.617188-29.527343-12.96875-42.839843-5.695313-9.660157 5.25-15.871094 14.09375-17.042969 24.257813-1.140625 9.914062 2.625 19.550781 10.339843 26.429687 20.550782 18.347657 27.789063 45.367188 18.871094 70.527344-2.078125 5.863281-3.832031 11.761719-5.472656 17.671875l-.042969.007812-.175781.707032c-2.632812 9.6875-4.542969 19.417968-5.960938 29.160156-.449218 3.011719-.859374 6.003906-1.191406 8.992188-.265625 2.488281-.53125 4.976562-.710937 7.476562-.457031 5.824219-.769531 11.625-.769531 17.339844 0 44.871094 13.335937 87.992187 38.574218 124.699218 2.183594 3.183594 4.597656 6.210938 7.207032 9.082032 18.257812 20.078125 46.238281 32.191406 75.648437 32.191406h185.445313c29.398437 0 57.382812-12.101562 75.640624-32.191406 2.605469-2.871094 5.023438-5.898438 7.207032-9.082032 25.238281-36.699218 38.585937-79.820312 38.585937-124.699218 0-4.460938-.15625-8.90625-.394531-13.324219 40.453125-10.140625 69-46.164063 69-88.617187zm-89.554688 68.230468c-10.355468-1.070312-19.964843-5.507812-27.332031-12.871094-24.03125-24.027343-62.59375-24.925781-87.703125-2.679687l-3.121094 2.679687c-.832031.835938-1.800781 1.4375-2.679687 2.1875v-130.726562h-64.03125v-45.472656c89.148437 4.949218 169.527344 88.382812 184.867187 186.882812zm-248.898437-8.09375c17.1875-8.792968 38.757813-6.210937 53.125 8.160156 12.101563 12.101563 28.183594 18.769532 45.28125 18.769532 3.851563 0 7.648437-.347656 11.363281-1.015625v87.75h-109.769531zm66.0625-4.777344c-17.828125-17.828124-43.660156-22.894531-66.0625-15.246093v-94.996094h109.769531v122.007813c-15.152344 3.871093-31.871094.0625-43.707031-11.765626zm-11.179687-238.308593c12.613281 0 22.867187 10.253906 22.867187 22.871093 0 12.613282-10.253906 22.867188-22.867187 22.867188-12.613282 0-22.867188-10.253906-22.867188-22.867188 0-12.617187 10.253906-22.871093 22.867188-22.871093zm-205.707032 119.347656c-3.21875-2.863281-4.792968-6.75-4.355468-10.675781.496093-4.234375 3.203124-7.882813 7.621093-10.300782 2.386719-1.296874 5.167969-1.917968 8.058594-1.917968 4.894531 0 10.054687 1.808594 13.859375 5.203125l31.90625 28.476562c4.117188 3.679688 10.535156 3.339844 14.296875-.804687 35.144531-39.277344 79.253906-62.074219 125.171875-64.964844v45.410156h-64.03125v123.167969c-1.125.871094-2.269531 1.730469-3.347656 2.691406l-3.117188 2.679688c-8.644531 8.644531-20.132812 13.410156-32.335937 13.410156-12.214844 0-23.703125-4.765625-32.347657-13.410156-11.011718-11.011719-25.328124-17.390625-40.625-18.394531 1.042969-3.429688 1.96875-6.871094 3.175782-10.28125 11.453125-32.304688 2.277344-66.890626-23.929688-90.289063zm367.015625 279.867187c-1.765625 2.570313-3.714843 5.019532-5.839843 7.335938-14.808594 16.214844-37.710938 25.996094-61.933594 25.996094h-185.457032c-20.753906 0-40.550781-7.179688-55.105468-19.449219-2.210938-1.863281-4.261719-3.875-6.21875-5.960937-.191406-.203126-.421875-.378907-.605469-.578126-2.113281-2.3125-4.070313-4.765624-5.835937-7.335937-23.125-33.644531-35.355469-73.179687-35.355469-114.332031 0-5.261719.3125-10.539063.707031-15.816406.144531-1.894532.28125-3.777344.484375-5.683594.402344-4.023438.96875-8.039063 1.589844-12.054688.578125-3.59375 1.261719-7.207031 2.019531-10.828125.175781-.824219.367188-1.648437.550781-2.472656.117188-.007813.246094-.007813.375-.007813 12.066407 0 23.492188 4.65625 32.0625 13.226563 12.101563 12.101563 28.183594 18.769531 45.28125 18.769531 14.207031 0 27.699219-4.648437 38.800781-13.152344v118.183594h146.359376v-112.367187c4.542968-2.386719 8.855468-5.285157 12.769531-8.761719l3.109375-2.683594c17.832031-17.828125 46.855468-17.828125 64.683594 0 11.304687 11.308594 26.371093 17.804688 42.324218 18.46875.007813.148438.027344.304688.039063.449219.363281 5.03125.566406 9.964844.566406 14.71875-.007813 41.164063-12.242187 80.691406-35.371094 114.335937zm51.660157-146.195312c-6.054688-48.976562-25.859376-96.992188-55.476563-134.484375 10.617187-5.765625 22.417969-8.765625 34.605469-8.765625 40.347656 0 73.179687 32.832031 73.179687 73.179688-.003906 32.941406-21.480469 61.03125-52.308593 70.070312zm0 0"/><path d="m237.578125 356.75c0 5.050781-4.097656 9.144531-9.148437 9.144531-5.050782 0-9.148438-4.09375-9.148438-9.144531 0-5.054688 4.097656-9.148438 9.148438-9.148438 5.050781 0 9.148437 4.09375 9.148437 9.148438zm0 0"/><path d="m274.167969 301.863281c0 5.054688-4.097657 9.148438-9.148438 9.148438s-9.148437-4.09375-9.148437-9.148438c0-5.050781 4.097656-9.148437 9.148437-9.148437s9.148438 4.097656 9.148438 9.148437zm0 0"/><path d="m200.988281 301.863281c0 5.054688-4.097656 9.148438-9.148437 9.148438-5.050782 0-9.148438-4.09375-9.148438-9.148438 0-5.050781 4.097656-9.148437 9.148438-9.148437 5.050781 0 9.148437 4.097656 9.148437 9.148437zm0 0"/><path d="m237.578125 301.863281c0 5.054688-4.097656 9.148438-9.148437 9.148438-5.050782 0-9.148438-4.09375-9.148438-9.148438 0-5.050781 4.097656-9.148437 9.148438-9.148437 5.050781 0 9.148437 4.097656 9.148437 9.148437zm0 0"/><path d="m255.875 329.308594c0 5.050781-4.097656 9.144531-9.148438 9.144531-5.054687 0-9.148437-4.09375-9.148437-9.144531 0-5.054688 4.09375-9.148438 9.148437-9.148438 5.050782 0 9.148438 4.09375 9.148438 9.148438zm0 0"/><path d="m219.28125 329.308594c0 5.050781-4.09375 9.144531-9.144531 9.144531-5.054688 0-9.148438-4.09375-9.148438-9.144531 0-5.054688 4.09375-9.148438 9.148438-9.148438 5.050781 0 9.144531 4.09375 9.144531 9.148438zm0 0"/></svg>