<svg height="512pt" viewBox="0 -66 512 512" width="512pt" xmlns="http://www.w3.org/2000/svg"><path d="m512 70c0-38.597656-31.402344-70-70-70h-342c-35.867188 0-67.171875 18.753906-84.871094 47.085938-2.925781 4.683593-1.5 10.851562 3.183594 13.777343 4.683594 2.929688 10.851562 1.503907 13.777344-3.183593 14.109375-22.578126 39.082031-37.679688 67.910156-37.679688h342c27.570312 0 50 22.429688 50 50 0 27.699219-22.425781 50-50 50h-342c-11.046875 0-20-8.953125-20-20 0-11.027344 8.972656-20 20-20h342c5.523438 0 10-4.476562 10-10s-4.476562-10-10-10h-342c-22.054688 0-40 17.945312-40 40 0 22.097656 17.898438 40 40 40h372c11.027344 0 20 8.972656 20 20 0 11.042969-8.953125 20-20 20h-372c-33.988281 0-64.351562-21.542969-75.550781-53.609375-1.820313-5.214844-7.523438-7.96875-12.734375-6.144531-5.214844 1.820312-7.96875 7.523437-6.144532 12.738281 7.550782 21.628906 22.085938 39.414063 40.535157 51.21875-26.867188 9.789063-46.105469 35.585937-46.105469 65.796875 0 20.070312 8.429688 39.371094 24.460938 53.144531-14.359376 6.074219-24.460938 20.308594-24.460938 36.855469 0 22.097656 17.898438 40 40 40h372c55.140625 0 100-44.859375 100-100 0-32.300781-15.179688-61.3125-39.972656-80 22.078125-.015625 39.972656-17.898438 39.972656-40 0-16.546875-10.101562-30.78125-24.460938-36.855469 16.035157-13.773437 24.460938-33.074219 24.460938-53.144531zm-20 210c0 44.113281-35.886719 80-80 80h-372c-11.046875 0-20-8.953125-20-20 0-11.027344 8.972656-20 20-20h372c22.097656 0 40-17.898438 40-40 0-22.054688-17.945312-40-40-40h-342c-5.523438 0-10 4.476562-10 10s4.476562 10 10 10h342c11.027344 0 20 8.972656 20 20 0 11.042969-8.953125 20-20 20h-342c-27.585938 0-50-22.316406-50-50 0-27.570312 22.429688-50 50-50h342c44.207031 0 80 35.757812 80 80zm0 0"/><path d="m20 90c0 5.523438-4.476562 10-10 10s-10-4.476562-10-10 4.476562-10 10-10 10 4.476562 10 10zm0 0"/></svg>